<mxfile host="Electron" agent="Mozilla/5.0 (Windows NT 10.0; Win64; x64) AppleWebKit/537.36 (KHTML, like Gecko) draw.io/24.7.17 Chrome/128.0.6613.36 Electron/32.0.1 Safari/537.36" version="24.7.17">
  <diagram name="Pagina-1" id="OS6vvi48EB9VWMHTjJzi">
    <mxGraphModel dx="473" dy="274" grid="1" gridSize="10" guides="1" tooltips="1" connect="1" arrows="1" fold="1" page="1" pageScale="1" pageWidth="827" pageHeight="1169" math="1" shadow="0">
      <root>
        <mxCell id="0" />
        <mxCell id="1" parent="0" />
        <mxCell id="yFstSm_Xgrm16cxIc_fl-5" value="" style="rounded=0;whiteSpace=wrap;html=1;fillColor=#11E809;strokeColor=none;rotation=-15;" vertex="1" parent="1">
          <mxGeometry x="389" y="410" width="10" height="100" as="geometry" />
        </mxCell>
        <mxCell id="yFstSm_Xgrm16cxIc_fl-10" value="\(f(1)=0.\ 5\ 2 \ 4 \ 2 \ 3 \dots\)" style="text;html=1;align=center;verticalAlign=middle;whiteSpace=wrap;rounded=0;" vertex="1" parent="1">
          <mxGeometry x="320" y="400" width="130" height="40" as="geometry" />
        </mxCell>
        <mxCell id="yFstSm_Xgrm16cxIc_fl-11" value="\(f(2)=0.\ 0\ 8 \ 3 \ 6 \ 2 \dots\)" style="text;html=1;align=center;verticalAlign=middle;whiteSpace=wrap;rounded=0;" vertex="1" parent="1">
          <mxGeometry x="320" y="440" width="130" height="40" as="geometry" />
        </mxCell>
        <mxCell id="yFstSm_Xgrm16cxIc_fl-12" value="\(f(3)=0.\ 9\ 2 \ 8 \ 4 \ 1 \dots\)" style="text;html=1;align=center;verticalAlign=middle;whiteSpace=wrap;rounded=0;" vertex="1" parent="1">
          <mxGeometry x="320" y="480" width="130" height="40" as="geometry" />
        </mxCell>
        <mxCell id="yFstSm_Xgrm16cxIc_fl-13" value="\( \vdots\)" style="text;html=1;align=center;verticalAlign=middle;whiteSpace=wrap;rounded=0;" vertex="1" parent="1">
          <mxGeometry x="320" y="520" width="130" height="40" as="geometry" />
        </mxCell>
        <mxCell id="yFstSm_Xgrm16cxIc_fl-14" value="\(d=0.\ a\ b \ c \ d \ e \dots\)" style="text;html=1;align=center;verticalAlign=middle;whiteSpace=wrap;rounded=0;" vertex="1" parent="1">
          <mxGeometry x="500" y="400" width="130" height="40" as="geometry" />
        </mxCell>
        <mxCell id="yFstSm_Xgrm16cxIc_fl-15" value="\(a\ne 5\)" style="text;html=1;align=center;verticalAlign=middle;whiteSpace=wrap;rounded=0;" vertex="1" parent="1">
          <mxGeometry x="500" y="430" width="130" height="40" as="geometry" />
        </mxCell>
        <mxCell id="yFstSm_Xgrm16cxIc_fl-16" value="\(b\ne 8\)" style="text;html=1;align=center;verticalAlign=middle;whiteSpace=wrap;rounded=0;" vertex="1" parent="1">
          <mxGeometry x="500" y="450" width="130" height="40" as="geometry" />
        </mxCell>
        <mxCell id="yFstSm_Xgrm16cxIc_fl-17" value="\(c\ne 8\)" style="text;html=1;align=center;verticalAlign=middle;whiteSpace=wrap;rounded=0;" vertex="1" parent="1">
          <mxGeometry x="500" y="470" width="130" height="40" as="geometry" />
        </mxCell>
      </root>
    </mxGraphModel>
  </diagram>
</mxfile>
